<svg width="1005" height="706" viewBox="0 0 1005 706" fill="none" xmlns="http://www.w3.org/2000/svg">
<g style="mix-blend-mode:hard-light" opacity="0.2" filter="url(#filter0_f_27_576)">
<path d="M272.925 672.07C242.356 684.669 208.606 687.369 176.423 679.79C92.234 659.636 49.9026 570.273 41.5229 492.458C38.0433 399.246 34.0902 286.167 29.9723 192.913C27.6046 141.284 23.4867 40.578 22.1484 -11.1749C25.9368 -61.8367 64.8504 -110.11 117.517 -116.904C148.401 -121.597 180.5 -110.913 203.704 -90.6981C312.95 -4.83443 460.821 110.92 570.026 195.198C668.463 271.819 808.861 380.471 909.603 451.101C920.31 458.759 931.407 466.499 942.114 473.951C963.465 490.42 990.148 493.014 1012.86 478.192C1017.99 475.022 1022.89 471.5 1027.54 467.652C1040.47 456.659 1049.16 441.199 1057.19 424.422C1089.29 353.318 1109.71 227.683 1086.01 152.689C1079.83 134.697 1062.79 117.96 1045.82 113.575C1032.38 110.673 1024.26 117.199 1012.26 123.971L1014.98 122.324C799.863 280.115 483.964 514.279 272.925 672.07ZM224.108 577.169C443.032 439.82 770.235 228.692 988.728 84.6111C997.54 79.5882 1008.97 73.8447 1020.08 71.2303C1060.85 61.1021 1100.55 90.8486 1117.7 125.371C1124.35 139.205 1127.73 154.438 1129.87 168.993C1140.9 256.544 1116.67 386.812 1068.47 461.065C1058.17 477.06 1042.84 490.585 1026.36 500.693C1000.48 517.511 965.997 519.22 939.149 503.369C923.645 494.105 908.862 482.783 894.161 472.716C837.15 432.368 778.615 388.438 721.068 348.789C546.246 228.445 337.08 83.2319 163.802 -39.1304C145.457 -54.3434 120.729 -53.8493 105.905 -34.4986C99.9284 -26.2904 96.5764 -16.4657 96.29 -6.31664L96.393 -11.9983C101.581 43.0071 131.395 432.059 134.874 478.83C142.06 520.558 165.964 588.965 217.437 578.342L221.678 577.334L225.569 576.037C225.253 576.093 224.951 576.216 224.685 576.397C224.419 576.578 224.194 576.813 224.025 577.087L224.108 577.169Z" fill="black"/>
</g>
<g style="mix-blend-mode:overlay" filter="url(#filter1_f_27_576)">
<path d="M272.925 672.07C242.356 684.669 208.606 687.369 176.423 679.79C92.234 659.636 49.9026 570.273 41.5229 492.458C38.0433 399.246 34.0902 286.167 29.9723 192.913C27.6046 141.284 23.4867 40.578 22.1484 -11.1749C25.9368 -61.8367 64.8504 -110.11 117.517 -116.904C148.401 -121.597 180.5 -110.913 203.704 -90.6981C312.95 -4.83443 460.821 110.92 570.026 195.198C668.463 271.819 808.861 380.471 909.603 451.101C920.31 458.759 931.407 466.499 942.114 473.951C963.465 490.42 990.148 493.014 1012.86 478.192C1017.99 475.022 1022.89 471.5 1027.54 467.652C1040.47 456.659 1049.16 441.199 1057.19 424.422C1089.29 353.318 1109.71 227.683 1086.01 152.689C1079.83 134.697 1062.79 117.96 1045.82 113.575C1032.38 110.673 1024.26 117.199 1012.26 123.971L1014.98 122.324C799.863 280.115 483.964 514.279 272.925 672.07ZM224.108 577.169C443.032 439.82 770.235 228.692 988.728 84.6111C997.54 79.5882 1008.97 73.8447 1020.08 71.2303C1060.85 61.1021 1100.55 90.8486 1117.7 125.371C1124.35 139.205 1127.73 154.438 1129.87 168.993C1140.9 256.544 1116.67 386.812 1068.47 461.065C1058.17 477.06 1042.84 490.585 1026.36 500.693C1000.48 517.511 965.997 519.22 939.149 503.369C923.645 494.105 908.862 482.783 894.161 472.716C837.15 432.368 778.615 388.438 721.068 348.789C546.246 228.445 337.08 83.2319 163.802 -39.1304C145.457 -54.3434 120.729 -53.8493 105.905 -34.4986C99.9284 -26.2904 96.5764 -16.4657 96.29 -6.31664L96.393 -11.9983C101.581 43.0071 131.395 432.059 134.874 478.83C142.06 520.558 165.964 588.965 217.437 578.342L221.678 577.334L225.569 576.037C225.253 576.093 224.951 576.216 224.685 576.397C224.419 576.578 224.194 576.813 224.025 577.087L224.108 577.169Z" fill="black"/>
</g>
<defs>
<filter id="filter0_f_27_576" x="7.59922" y="-132.549" width="1139.45" height="831.099" filterUnits="userSpaceOnUse" color-interpolation-filters="sRGB">
<feFlood flood-opacity="0" result="BackgroundImageFix"/>
<feBlend mode="normal" in="SourceGraphic" in2="BackgroundImageFix" result="shape"/>
<feGaussianBlur stdDeviation="7.27461" result="effect1_foregroundBlur_27_576"/>
</filter>
<filter id="filter1_f_27_576" x="0.821133" y="-139.327" width="1153.01" height="844.655" filterUnits="userSpaceOnUse" color-interpolation-filters="sRGB">
<feFlood flood-opacity="0" result="BackgroundImageFix"/>
<feBlend mode="normal" in="SourceGraphic" in2="BackgroundImageFix" result="shape"/>
<feGaussianBlur stdDeviation="10.6637" result="effect1_foregroundBlur_27_576"/>
</filter>
</defs>
</svg>
