<svg width="35" height="25" viewBox="0 0 35 25" fill="none" xmlns="http://www.w3.org/2000/svg">
<path d="M7.8014 24.6281C6.85044 25.0208 5.80052 25.105 4.79933 24.8688C2.18029 24.2405 0.863406 21.4549 0.602719 19.0292C0.494473 16.1236 0.371495 12.5987 0.243394 9.69181C0.169735 8.08242 0.0416331 4.9432 0 3.32996C0.117854 1.75073 1.32841 0.245932 2.96684 0.0341701C3.9276 -0.112138 4.92615 0.220905 5.64801 0.851058C9.04655 3.5276 13.6467 7.13591 17.0439 9.76304C20.1062 12.1515 24.4738 15.5384 27.6079 17.7401C27.9409 17.9788 28.2862 18.2201 28.6192 18.4524C29.2834 18.9657 30.1135 19.0466 30.82 18.5845C30.9796 18.4857 31.1322 18.3759 31.2767 18.256C31.6789 17.9133 31.9492 17.4314 32.199 16.9084C33.1976 14.692 33.833 10.7757 33.0957 8.43792C32.9036 7.87707 32.3732 7.35537 31.8455 7.21869C31.4272 7.12821 31.1748 7.33163 30.8014 7.54275L30.886 7.49141C24.1939 12.4101 14.3666 19.7095 7.8014 24.6281ZM6.28275 21.6699C13.0933 17.3884 23.2722 10.8071 30.0693 6.31581C30.3435 6.15923 30.6989 5.9802 31.0448 5.8987C32.313 5.58298 33.5479 6.51024 34.0815 7.58638C34.2884 8.01761 34.3934 8.49247 34.46 8.94615C34.8033 11.6753 34.0494 15.736 32.55 18.0506C32.2298 18.5493 31.7526 18.9709 31.2402 19.2859C30.4351 19.8102 29.3622 19.8635 28.527 19.3694C28.0447 19.0806 27.5848 18.7276 27.1275 18.4139C25.3539 17.1561 23.5329 15.7867 21.7427 14.5508C16.3041 10.7994 9.79722 6.27282 4.4067 2.45853C3.83601 1.98431 3.06676 1.99971 2.60559 2.60291C2.41966 2.85878 2.31538 3.16503 2.30647 3.4814L2.30968 3.30429C2.47108 5.01893 3.39854 17.1465 3.50679 18.6044C3.73032 19.9052 4.47395 22.0376 6.07523 21.7064L6.20717 21.675L6.32823 21.6346C6.31837 21.6363 6.309 21.6402 6.30072 21.6458C6.29244 21.6514 6.28545 21.6588 6.28019 21.6673L6.28275 21.6699Z" fill="url(#paint0_linear_27_962)"/>
<defs>
<linearGradient id="paint0_linear_27_962" x1="0" y1="12.5" x2="34.542" y2="12.5024" gradientUnits="userSpaceOnUse">
<stop stop-color="#B548BD"/>
<stop offset="1" stop-color="#01F3FD"/>
</linearGradient>
</defs>
</svg>
