<svg width="108" height="25" viewBox="0 0 108 25" fill="none" xmlns="http://www.w3.org/2000/svg">
<path d="M7.8014 24.6281C6.85044 25.0208 5.80052 25.105 4.79933 24.8688C2.18029 24.2405 0.863406 21.4549 0.602719 19.0292C0.494473 16.1236 0.371495 12.5987 0.243394 9.69181C0.169735 8.08242 0.0416331 4.9432 0 3.32996C0.117854 1.75073 1.32841 0.245932 2.96684 0.0341701C3.9276 -0.112138 4.92615 0.220905 5.64801 0.851058C9.04655 3.5276 13.6467 7.13591 17.0439 9.76304C20.1062 12.1515 24.4738 15.5384 27.6079 17.7401C27.9409 17.9788 28.2862 18.2201 28.6192 18.4524C29.2834 18.9657 30.1135 19.0466 30.82 18.5845C30.9796 18.4857 31.1322 18.3759 31.2767 18.256C31.6789 17.9133 31.9492 17.4314 32.199 16.9084C33.1976 14.692 33.833 10.7757 33.0957 8.43792C32.9036 7.87707 32.3732 7.35537 31.8455 7.21869C31.4272 7.12821 31.1748 7.33163 30.8014 7.54275L30.886 7.49141C24.1939 12.4101 14.3666 19.7095 7.8014 24.6281ZM6.28275 21.6699C13.0933 17.3884 23.2722 10.8071 30.0693 6.31581C30.3435 6.15923 30.6989 5.9802 31.0448 5.8987C32.313 5.58298 33.5479 6.51024 34.0815 7.58638C34.2884 8.01761 34.3934 8.49247 34.46 8.94615C34.8033 11.6753 34.0494 15.736 32.55 18.0506C32.2298 18.5493 31.7526 18.9709 31.2402 19.2859C30.4351 19.8102 29.3622 19.8635 28.527 19.3694C28.0447 19.0806 27.5848 18.7276 27.1275 18.4139C25.3539 17.1561 23.5329 15.7867 21.7427 14.5508C16.3041 10.7994 9.79722 6.27282 4.4067 2.45853C3.83601 1.98431 3.06676 1.99971 2.60559 2.60291C2.41966 2.85878 2.31538 3.16503 2.30647 3.4814L2.30968 3.30429C2.47108 5.01893 3.39854 17.1465 3.50679 18.6044C3.73032 19.9052 4.47395 22.0376 6.07523 21.7064L6.20717 21.675L6.32823 21.6346C6.31837 21.6363 6.309 21.6402 6.30072 21.6458C6.29244 21.6514 6.28545 21.6588 6.28019 21.6673L6.28275 21.6699Z" fill="url(#paint0_linear_613_3)"/>
<path d="M49.366 19.8988L48.6099 16.2551H45.177L44.4209 19.8988H42.541L45.5652 6.17409H48.2625L51.2459 19.8988H49.366ZM45.5039 14.6154H48.2625L46.873 7.95547L45.5039 14.6154Z" fill="white"/>
<path d="M57.3173 8.25911H59.2586L56.7043 19.8988H54.1909L51.5958 8.25911H53.5575C54.5111 12.861 55.1445 16.2686 55.4578 18.4818C55.7031 16.7274 56.0027 14.9325 56.3569 13.0972L57.3173 8.25911Z" fill="white"/>
<path d="M61.7999 16.5587V17.166C61.7999 17.6113 61.902 17.942 62.1064 18.1579C62.3244 18.3738 62.7398 18.4818 63.3529 18.4818C63.9795 18.4818 64.5517 18.2726 65.0693 17.8543V14.4737L63.1281 15C62.5968 15.1484 62.2426 15.3374 62.0655 15.5668C61.8884 15.7827 61.7999 16.1134 61.7999 16.5587ZM60.4717 8.54251C61.2482 8.2861 62.2358 8.15789 63.4346 8.15789C65.7641 8.15789 66.9288 9.20378 66.9288 11.2955V19.8988H65.0897V19.0688C64.4904 19.6626 63.7002 19.9595 62.7194 19.9595C60.8395 19.9595 59.8995 19.0216 59.8995 17.1457V16.4777C59.8995 15.722 60.097 15.1147 60.4921 14.6559C60.8872 14.1835 61.5206 13.8259 62.3925 13.583L65.0693 12.8543V11.2955C65.0693 10.7962 64.9331 10.4386 64.6606 10.2227C64.3882 9.99325 63.8092 9.87854 62.9237 9.87854C62.0519 9.87854 61.2345 10.0135 60.4717 10.2834V8.54251Z" fill="white"/>
<path d="M69.1502 5.16194H71.071V19.8988H69.1502V5.16194Z" fill="white"/>
<path d="M73.1915 16.8219V11.2348C73.1915 10.2632 73.4776 9.49393 74.0497 8.92713C74.6219 8.34683 75.4937 8.05668 76.6653 8.05668C77.8368 8.05668 78.7019 8.34683 79.2604 8.92713C79.8189 9.49393 80.0982 10.2632 80.0982 11.2348V14.9393H75.0714V16.7206C75.0714 17.2605 75.2349 17.6586 75.5618 17.915C75.9024 18.1714 76.4882 18.2996 77.3192 18.2996C78.1638 18.2996 78.9811 18.1781 79.7712 17.9352V19.6761C78.9539 19.892 78.082 20 77.1557 20C74.5129 20 73.1915 18.9406 73.1915 16.8219ZM75.0714 13.4008H78.2796V11.2551C78.2796 10.2024 77.7415 9.67611 76.6653 9.67611C75.6027 9.67611 75.0714 10.2024 75.0714 11.2551V13.4008Z" fill="white"/>
<path d="M86.24 8.19838H86.71V10H86.097C85.4567 10 84.7552 10.2564 83.9923 10.7692V19.8988H82.0715V8.25911H83.9106V9.10931C83.9514 9.08232 84.0264 9.02834 84.1353 8.94737C84.2579 8.8664 84.3329 8.81916 84.3601 8.80567C84.401 8.77868 84.4691 8.73144 84.5644 8.66397C84.6734 8.59649 84.7484 8.55601 84.7892 8.54251C84.8301 8.52901 84.8914 8.50203 84.9731 8.46154C85.0685 8.40756 85.1434 8.37382 85.1979 8.36032C85.2524 8.34683 85.3205 8.32659 85.4022 8.2996C85.4976 8.25911 85.5861 8.23887 85.6679 8.23887C85.9131 8.21188 86.1038 8.19838 86.24 8.19838Z" fill="white"/>
<path d="M89.9579 6.1336C89.9579 6.87584 89.5833 7.24696 88.834 7.24696C88.0848 7.24696 87.7102 6.87584 87.7102 6.1336C87.7102 5.37787 88.0848 5 88.834 5C89.5833 5 89.9579 5.37787 89.9579 6.1336ZM87.8736 8.40081H89.7944V19.8988H87.8736V8.40081Z" fill="white"/>
<path d="M93.3249 16.5587V17.166C93.3249 17.6113 93.4271 17.942 93.6314 18.1579C93.8494 18.3738 94.2648 18.4818 94.8779 18.4818C95.5045 18.4818 96.0767 18.2726 96.5943 17.8543V14.4737L94.6531 15C94.1218 15.1484 93.7676 15.3374 93.5905 15.5668C93.4134 15.7827 93.3249 16.1134 93.3249 16.5587ZM91.9967 8.54251C92.7732 8.2861 93.7608 8.15789 94.9596 8.15789C97.2891 8.15789 98.4538 9.20378 98.4538 11.2955V19.8988H96.6147V19.0688C96.0154 19.6626 95.2252 19.9595 94.2444 19.9595C92.3645 19.9595 91.4245 19.0216 91.4245 17.1457V16.4777C91.4245 15.722 91.622 15.1147 92.0171 14.6559C92.4122 14.1835 93.0456 13.8259 93.9175 13.583L96.5943 12.8543V11.2955C96.5943 10.7962 96.4581 10.4386 96.1856 10.2227C95.9132 9.99325 95.3342 9.87854 94.4487 9.87854C93.5769 9.87854 92.7595 10.0135 91.9967 10.2834V8.54251Z" fill="white"/>
<path d="M102.514 8.78543C103.386 8.40756 104.197 8.21862 104.946 8.21862C105.709 8.21862 106.329 8.44804 106.805 8.90688C107.296 9.35223 107.541 10 107.541 10.8502V19.8988H105.579V11.1741C105.579 10.3779 105.177 9.97976 104.374 9.97976C103.788 9.97976 103.195 10.1282 102.596 10.4251V19.8988H100.675V8.25911H102.514V8.78543Z" fill="white"/>
<defs>
<linearGradient id="paint0_linear_613_3" x1="0" y1="12.5" x2="34.542" y2="12.5024" gradientUnits="userSpaceOnUse">
<stop stop-color="#B548BD"/>
<stop offset="1" stop-color="#01F3FD"/>
</linearGradient>
</defs>
</svg>
